<?xml version="1.0" encoding="UTF-8"?>
<svg width="243px" height="102px" viewBox="0 0 243 102" version="1.1" xmlns="http://www.w3.org/2000/svg" xmlns:xlink="http://www.w3.org/1999/xlink">
    <!-- Generator: Sketch 50.2 (55047) - http://www.bohemiancoding.com/sketch -->
    <title>logo</title>
    <desc>Created with Sketch.</desc>
    <defs></defs>
    <g id="Page-1" stroke="none" stroke-width="1" fill="none" fill-rule="evenodd">
        <g id="logo" fill="#69DEA3" fill-rule="nonzero">
            <path d="M32.8,24.5 C32.7,24.3 24.3,0.3 24.3,0.3 L0,0.3 L0,46.1 L16,46.1 L16,21.1 L24.2,46.1 L39.5,46.1 L48.3,21 L48.3,46.1 L65,46.1 L65,0.3 L41,0.3 C41.1,0.3 32.9,24.3 32.8,24.5" id="Fill-1"></path>
            <polyline id="Fill-5" points="242.3 31.8 225.7 31.8 225.7 14.7 242.5 14.7 242.5 0.3 191.1 0.3 191.1 14.7 207.5 14.7 207.5 31.8 190.8 31.8 190.8 46.1 242.3 46.1 242.3 31.8"></polyline>
            <path d="M146.3,23.1 C147,24.1 147.7,25 148.2,25.6 L167.2,46.1 L184.2,46.1 L184.2,0.3 L167.6,0.3 L167.6,23.3 C167.2,22.7 166.7,22.1 166.2,21.4 L147.7,0.3 L129.7,0.3 L129.7,46.1 L146.3,46.1 L146.3,23.1" id="Fill-4"></path>
            <polyline id="Fill-6" points="122.8 31.8 106.3 31.8 106.3 14.7 123.1 14.7 123.1 0.3 71.6 0.3 71.6 14.7 88.1 14.7 88.1 31.8 71.4 31.8 71.4 46.1 122.8 46.1 122.8 31.8"></polyline>
            <path d="M31.8,67.3 C35.8,67.3 41,68.5 42.4,74.1 L42.7,75.2 L61.3,71.7 L60.9,70.4 C57.8,59.8 46.6,53.3 31.8,53.3 C13.9,53.3 1.3,63.4 1.3,77.9 C1.3,92.6 13.1,102 31.3,102 C46.4,102 57.1,96 60.8,85.4 L61.3,84.1 L42.8,80 L42.5,81.1 C41.1,86.6 36,87.8 31.9,87.8 C24.6,87.8 20.4,84.1 20.4,77.5 C20.3,71.1 24.6,67.3 31.8,67.3" id="Fill-8"></path>
            <path d="M107.9,77.6 C107.9,84 103.3,88.2 96.3,88.2 C89.2,88.2 84.6,84 84.6,77.6 C84.6,71.2 89.2,67 96.3,67 C103.3,67 107.9,71.1 107.9,77.6 M96.2,53.2 C77.6,53.2 65.5,62.8 65.5,77.6 C65.5,92.4 77.5,102 96.2,102 C114.8,102 126.8,92.4 126.8,77.6 C126.8,62.8 114.8,53.2 96.2,53.2" id="Fill-9"></path>
            <path d="M224,72.1 C224,75.5 222.1,77.2 218.5,77.2 L209,77.2 L209,67.1 L218.6,67.1 C223.4,67 224,69.9 224,72.1 M221.7,54.6 L190.8,54.6 L190.8,100.4 L208.9,100.4 L208.9,89.5 L222,89.5 C234.2,89.5 242.2,82.4 242.2,71.5 C242.2,61 234.5,54.6 221.7,54.6" id="Fill-11"></path>
            <path d="M164.5,72.1 C164.5,75.5 162.6,77.2 159,77.2 L149.5,77.2 L149.5,67.1 L159.1,67.1 C163.9,67 164.5,69.9 164.5,72.1 M183.6,71.4 C183.6,66.4 181.6,54.7 163.1,54.7 L131.5,54.7 L131.5,100.5 L149.6,100.5 L149.6,89 L156.8,89 L166,100.5 L186.2,100.5 L175.2,86.3 C182.7,82.2 183.6,74.6 183.6,71.4" id="Fill-12"></path>
        </g>
    </g>
</svg>